<svg width="21" height="20" viewBox="0 0 21 20" fill="none" xmlns="http://www.w3.org/2000/svg">
<path opacity="0.6" d="M9.03176 3.33325C8.96509 3.58325 8.9401 3.85825 8.9401 4.16659V6.66659H4.77344V4.99992C4.77344 4.08325 5.52344 3.33325 6.4401 3.33325H9.03176Z" fill="#FB4156"/>
<path d="M8.9401 15.8334V6.66675H4.77344C3.10677 6.66675 2.27344 7.50008 2.27344 9.16675V15.8334C2.27344 17.5001 3.10677 18.3334 4.77344 18.3334H11.4401C9.77344 18.3334 8.9401 17.5001 8.9401 15.8334ZM6.23177 14.1667C6.23177 14.5084 5.94844 14.7917 5.60677 14.7917C5.2651 14.7917 4.98177 14.5084 4.98177 14.1667V10.8334C4.98177 10.4917 5.2651 10.2084 5.60677 10.2084C5.94844 10.2084 6.23177 10.4917 6.23177 10.8334V14.1667Z" fill="#FB4156"/>
<path opacity="0.4" d="M12.2738 18.3334H11.4404C9.77376 18.3334 8.94043 17.5001 8.94043 15.8334V4.16675C8.94043 2.50008 9.77376 1.66675 11.4404 1.66675H16.4404C18.1071 1.66675 18.9404 2.50008 18.9404 4.16675V15.8334C18.9404 17.5001 18.1071 18.3334 16.4404 18.3334H15.6071" fill="#FB4156"/>
<path d="M15.6068 15.0001V18.3334H12.2734V15.0001C12.2734 14.5417 12.6484 14.1667 13.1068 14.1667H14.7734C15.2318 14.1667 15.6068 14.5417 15.6068 15.0001Z" fill="#FB4156"/>
<path d="M12.2734 11.4584C11.9318 11.4584 11.6484 11.1751 11.6484 10.8334V6.66675C11.6484 6.32508 11.9318 6.04175 12.2734 6.04175C12.6151 6.04175 12.8984 6.32508 12.8984 6.66675V10.8334C12.8984 11.1751 12.6151 11.4584 12.2734 11.4584Z" fill="#FB4156"/>
<path d="M15.6069 11.4584C15.2653 11.4584 14.9819 11.1751 14.9819 10.8334V6.66675C14.9819 6.32508 15.2653 6.04175 15.6069 6.04175C15.9486 6.04175 16.2319 6.32508 16.2319 6.66675V10.8334C16.2319 11.1751 15.9486 11.4584 15.6069 11.4584Z" fill="#FB4156"/>
</svg>
