<svg width="21" height="20" viewBox="0 0 21 20" fill="none" xmlns="http://www.w3.org/2000/svg">
<path d="M18.3404 15.2751C18.3404 15.5751 18.2737 15.8834 18.1321 16.1834C17.9904 16.4834 17.8071 16.7667 17.5654 17.0334C17.1571 17.4834 16.7071 17.8084 16.1987 18.0167C15.6987 18.2251 15.1571 18.3334 14.5737 18.3334C13.7237 18.3334 12.8154 18.1334 11.8571 17.7251C10.8987 17.3167 9.9404 16.7667 8.9904 16.0751C8.03206 15.3751 7.12373 14.6001 6.25706 13.7417C5.39873 12.8751 4.62373 11.9667 3.93206 11.0167C3.24873 10.0667 2.69873 9.11675 2.29873 8.17508C1.89873 7.22508 1.69873 6.31675 1.69873 5.45008C1.69873 4.88341 1.79873 4.34175 1.99873 3.84175C2.19873 3.33341 2.5154 2.86675 2.95706 2.45008C3.4904 1.92508 4.07373 1.66675 4.6904 1.66675C4.92373 1.66675 5.15706 1.71675 5.3654 1.81675C5.58206 1.91675 5.77373 2.06675 5.92373 2.28341L7.85706 5.00841C8.00706 5.21675 8.1154 5.40841 8.1904 5.59175C8.2654 5.76675 8.30706 5.94175 8.30706 6.10008C8.30706 6.30008 8.24873 6.50008 8.13206 6.69175C8.02373 6.88341 7.8654 7.08341 7.6654 7.28341L7.03206 7.94175C6.9404 8.03341 6.89873 8.14175 6.89873 8.27508C6.89873 8.34175 6.90706 8.40008 6.92373 8.46675C6.94873 8.53341 6.97373 8.58341 6.9904 8.63341C7.1404 8.90841 7.39873 9.26675 7.7654 9.70008C8.1404 10.1334 8.5404 10.5751 8.97373 11.0167C9.42373 11.4584 9.85706 11.8667 10.2987 12.2417C10.7321 12.6084 11.0904 12.8584 11.3737 13.0084C11.4154 13.0251 11.4654 13.0501 11.5237 13.0751C11.5904 13.1001 11.6571 13.1084 11.7321 13.1084C11.8737 13.1084 11.9821 13.0584 12.0737 12.9667L12.7071 12.3417C12.9154 12.1334 13.1154 11.9751 13.3071 11.8751C13.4987 11.7584 13.6904 11.7001 13.8987 11.7001C14.0571 11.7001 14.2237 11.7334 14.4071 11.8084C14.5904 11.8834 14.7821 11.9917 14.9904 12.1334L17.7487 14.0917C17.9654 14.2417 18.1154 14.4167 18.2071 14.6251C18.2904 14.8334 18.3404 15.0417 18.3404 15.2751Z" fill="#FB4156"/>
</svg>
