<svg width="17" height="16" viewBox="0 0 17 16" fill="none" xmlns="http://www.w3.org/2000/svg">
<g clip-path="url(#clip0_3166_25683)">
<path d="M8.78064 3.19971C8.33836 3.19971 7.98047 3.5576 7.98047 3.99988V8.00074C7.98047 8.21329 8.06486 8.41646 8.21489 8.56649L10.6154 10.967C10.7717 11.1233 10.9764 11.2014 11.1812 11.2014C11.3859 11.2014 11.5906 11.1233 11.7469 10.967C12.0595 10.6544 12.0595 10.1481 11.7469 9.83551L9.58081 7.66942V3.99988C9.58081 3.5576 9.22292 3.19971 8.78064 3.19971Z" fill="#FB4156"/>
<path d="M15.9826 7.1996C15.5403 7.1996 15.1824 7.55749 15.1824 7.99977C15.1824 11.5294 12.3107 14.4012 8.78102 14.4012C5.25135 14.4012 2.37964 11.5294 2.37964 7.99977C2.37964 4.4701 5.25135 1.59839 8.78102 1.59839C10.7494 1.59839 12.5553 2.50093 13.7555 3.99891H11.9817C11.5394 3.99891 11.1815 4.3568 11.1815 4.79908C11.1815 5.24136 11.5394 5.59925 11.9817 5.59925H15.1824C15.6247 5.59925 15.9826 5.24136 15.9826 4.79908V1.59839C15.9826 1.15611 15.6247 0.798219 15.1824 0.798219C14.7401 0.798219 14.3822 1.15611 14.3822 1.59839V2.30792C12.9116 0.854481 10.9229 -0.00195312 8.78102 -0.00195312C4.36913 -0.00195312 0.779297 3.58788 0.779297 7.99977C0.779297 12.4117 4.36913 16.0015 8.78102 16.0015C13.1929 16.0015 16.7827 12.4117 16.7827 7.99977C16.7827 7.55749 16.4249 7.1996 15.9826 7.1996Z" fill="#FB4156"/>
</g>
<defs>
<clipPath id="clip0_3166_25683">
<rect width="16" height="16" fill="white" transform="translate(0.5)"/>
</clipPath>
</defs>
</svg>
