<svg width="21" height="21" viewBox="0 0 21 21" fill="none" xmlns="http://www.w3.org/2000/svg">
<path opacity="0.4" d="M14.1692 17.0958L5.83591 17.0883C3.33591 17.0861 1.67036 15.8346 1.67296 12.918L1.67817 7.08463C1.68077 4.16797 3.34855 2.91946 5.84855 2.92169L14.1819 2.92912C16.6819 2.93136 18.3474 4.18284 18.3448 7.09951L18.3396 12.9328C18.337 15.8495 16.6692 17.098 14.1692 17.0958Z" fill="#FB4156"/>
<path d="M10.0083 10.7341C9.30825 10.7335 8.60012 10.5162 8.05885 10.0741L5.45237 7.9884C5.1859 7.7715 5.13625 7.37978 5.35315 7.11331C5.57006 6.84684 5.96177 6.79719 6.22824 7.0141L8.83471 9.09976C9.46759 9.60865 10.5426 9.60961 11.1764 9.10185L13.7866 7.02084C14.0534 6.80441 14.4534 6.84643 14.6615 7.12162C14.8779 7.38848 14.8359 7.78844 14.5607 7.99653L11.9505 10.0775C11.4168 10.5187 10.7083 10.7348 10.0083 10.7341Z" fill="#FB4156"/>
</svg>
