<svg width="14" height="14" viewBox="0 0 14 14" fill="none" xmlns="http://www.w3.org/2000/svg">
<path d="M12.8333 10.2078H8.75" stroke="#606060" stroke-width="0.75" stroke-miterlimit="10" stroke-linecap="round" stroke-linejoin="round"/>
<path d="M2.91602 10.2078H1.16602" stroke="#606060" stroke-width="0.75" stroke-miterlimit="10" stroke-linecap="round" stroke-linejoin="round"/>
<path d="M12.834 3.79224H11.084" stroke="#606060" stroke-width="0.75" stroke-miterlimit="10" stroke-linecap="round" stroke-linejoin="round"/>
<path d="M5.24935 3.79224H1.16602" stroke="#606060" stroke-width="0.75" stroke-miterlimit="10" stroke-linecap="round" stroke-linejoin="round"/>
<path d="M4.08268 8.45776H7.58268C8.22435 8.45776 8.74935 8.74943 8.74935 9.62443V10.7911C8.74935 11.6661 8.22435 11.9578 7.58268 11.9578H4.08268C3.44102 11.9578 2.91602 11.6661 2.91602 10.7911V9.62443C2.91602 8.74943 3.44102 8.45776 4.08268 8.45776Z" stroke="#606060" stroke-width="0.75" stroke-miterlimit="10" stroke-linecap="round" stroke-linejoin="round"/>
<path d="M6.41667 2.04224H9.91667C10.5583 2.04224 11.0833 2.3339 11.0833 3.2089V4.37557C11.0833 5.25057 10.5583 5.54224 9.91667 5.54224H6.41667C5.775 5.54224 5.25 5.25057 5.25 4.37557V3.2089C5.25 2.3339 5.775 2.04224 6.41667 2.04224Z" stroke="#606060" stroke-width="0.75" stroke-miterlimit="10" stroke-linecap="round" stroke-linejoin="round"/>
</svg>
