<svg width="21" height="20" viewBox="0 0 21 20" fill="none" xmlns="http://www.w3.org/2000/svg">
<path opacity="0.4" d="M15.3075 2.5H5.30745C3.46579 2.5 1.97412 3.98333 1.97412 5.80833V14.1917C1.97412 16.0167 3.46579 17.5 5.30745 17.5H15.3075C17.1491 17.5 18.6408 16.0167 18.6408 14.1917V5.80833C18.6408 3.98333 17.1491 2.5 15.3075 2.5Z" fill="#FB4156"/>
<path d="M16.1408 7.29175H11.9741C11.6325 7.29175 11.3491 7.00841 11.3491 6.66675C11.3491 6.32508 11.6325 6.04175 11.9741 6.04175H16.1408C16.4825 6.04175 16.7658 6.32508 16.7658 6.66675C16.7658 7.00841 16.4825 7.29175 16.1408 7.29175Z" fill="#FB4156"/>
<path d="M16.141 10.625H12.8076C12.466 10.625 12.1826 10.3417 12.1826 10C12.1826 9.65833 12.466 9.375 12.8076 9.375H16.141C16.4826 9.375 16.766 9.65833 16.766 10C16.766 10.3417 16.4826 10.625 16.141 10.625Z" fill="#FB4156"/>
<path d="M16.1408 13.9583H14.4741C14.1325 13.9583 13.8491 13.6749 13.8491 13.3333C13.8491 12.9916 14.1325 12.7083 14.4741 12.7083H16.1408C16.4825 12.7083 16.7658 12.9916 16.7658 13.3333C16.7658 13.6749 16.4825 13.9583 16.1408 13.9583Z" fill="#FB4156"/>
<path d="M7.39082 9.8251C8.45397 9.8251 9.31582 8.96325 9.31582 7.9001C9.31582 6.83695 8.45397 5.9751 7.39082 5.9751C6.32767 5.9751 5.46582 6.83695 5.46582 7.9001C5.46582 8.96325 6.32767 9.8251 7.39082 9.8251Z" fill="#FB4156"/>
<path d="M8.05739 10.925C7.61573 10.8834 7.15739 10.8834 6.71573 10.925C5.31573 11.0584 4.19073 12.1667 4.05739 13.5667C4.04906 13.6834 4.08239 13.8 4.16573 13.8834C4.24906 13.9667 4.35739 14.025 4.47406 14.025H10.3074C10.4241 14.025 10.5407 13.975 10.6157 13.8917C10.6907 13.8084 10.7324 13.6917 10.7241 13.575C10.5824 12.1667 9.46573 11.0584 8.05739 10.925Z" fill="#FB4156"/>
</svg>
