<svg width="21" height="20" viewBox="0 0 21 20" fill="none" xmlns="http://www.w3.org/2000/svg">
<path opacity="0.4" d="M14.627 17.087L6.29367 17.0796C3.79367 17.0773 2.12812 15.8258 2.13072 12.9092L2.13593 7.07584C2.13853 4.15918 3.80631 2.91067 6.30631 2.9129L14.6396 2.92034C17.1396 2.92257 18.8052 4.17405 18.8026 7.09072L18.7974 12.9241C18.7948 15.8407 17.127 17.0892 14.627 17.087Z" fill="#FB4156"/>
<path d="M10.4663 10.7249C9.76626 10.7242 9.05813 10.5069 8.51685 10.0648L5.91038 7.97913C5.6439 7.76222 5.59426 7.37051 5.81116 7.10403C6.02807 6.83756 6.41978 6.78791 6.68625 7.00482L9.29272 9.09048C9.9256 9.59938 11.0006 9.60034 11.6344 9.09257L14.2446 7.01156C14.5114 6.79514 14.9114 6.83716 15.1195 7.11234C15.3359 7.3792 15.2939 7.77917 15.0187 7.98725L12.4085 10.0683C11.8748 10.5094 11.1663 10.7255 10.4663 10.7249Z" fill="#FB4156"/>
</svg>
