<svg width="16" height="16" viewBox="0 0 16 16" fill="none" xmlns="http://www.w3.org/2000/svg">
<mask id="mask0_2356_5611" style="mask-type:luminance" maskUnits="userSpaceOnUse" x="0" y="0" width="16" height="16">
<path d="M16 0H0V16H16V0Z" fill="white"/>
</mask>
<g mask="url(#mask0_2356_5611)">
<path d="M4.18496 16H10.1575C10.8329 15.9994 11.4931 15.7987 12.0545 15.4231C12.616 15.0475 13.0535 14.514 13.3119 13.8899C13.5703 13.2658 13.638 12.5792 13.5064 11.9167C13.3748 11.2541 13.0498 10.6455 12.5725 10.1675C12.3985 9.99208 12.2067 9.83539 12 9.70006V6.36506C12 6.23245 11.9473 6.10528 11.8535 6.01151C11.7597 5.91774 11.6326 5.86506 11.5 5.86506C11.3869 5.84211 11.2853 5.78079 11.2123 5.69149C11.1393 5.60219 11.0995 5.4904 11.0995 5.37506C11.0995 5.25972 11.1393 5.14794 11.2123 5.05863C11.2853 4.96933 11.3869 4.90801 11.5 4.88506C11.6326 4.88506 11.7597 4.83238 11.8535 4.73861C11.9473 4.64485 12 4.51767 12 4.38506V1.75006C12 1.28593 11.8156 0.840813 11.4874 0.512625C11.1592 0.184436 10.7141 6.10352e-05 10.25 6.10352e-05H8.54996C8.41735 6.10352e-05 8.29017 0.0527394 8.1964 0.146508C8.10264 0.240276 8.04996 0.367453 8.04996 0.500062C8.03835 0.710687 7.9465 0.908864 7.79329 1.05386C7.64008 1.19886 7.43715 1.27966 7.22621 1.27966C7.01526 1.27966 6.81233 1.19886 6.65912 1.05386C6.50591 0.908864 6.41407 0.710687 6.40246 0.500062C6.40246 0.367453 6.34978 0.240276 6.25601 0.146508C6.16224 0.0527394 6.03507 6.10352e-05 5.90246 6.10352e-05H4.20246C3.73833 6.10352e-05 3.29321 0.184436 2.96502 0.512625C2.63683 0.840813 2.45246 1.28593 2.45246 1.75006V4.37506C2.45246 4.50767 2.50514 4.63485 2.5989 4.72861C2.69267 4.82238 2.81985 4.87506 2.95246 4.87506C3.06549 4.89801 3.16711 4.95933 3.2401 5.04863C3.31309 5.13794 3.35296 5.24972 3.35296 5.36506C3.35296 5.4804 3.31309 5.59219 3.2401 5.68149C3.16711 5.77079 3.06549 5.83211 2.95246 5.85506C2.81985 5.85506 2.69267 5.90774 2.5989 6.00151C2.50514 6.09528 2.45246 6.22245 2.45246 6.35506V14.235C2.44846 14.6987 2.62867 15.1451 2.95351 15.476C3.27835 15.8069 3.72126 15.9954 4.18496 16ZM11.865 14.295C11.5271 14.6325 11.0968 14.8622 10.6284 14.9551C10.16 15.048 9.6746 15 9.23349 14.8172C8.79239 14.6343 8.4154 14.3247 8.15017 13.9277C7.88494 13.5306 7.74338 13.0638 7.74338 12.5863C7.74338 12.1088 7.88494 11.642 8.15017 11.2449C8.4154 10.8478 8.79239 10.5383 9.23349 10.3554C9.6746 10.1725 10.16 10.1245 10.6284 10.2175C11.0968 10.3104 11.5271 10.5401 11.865 10.8775C12.3164 11.3306 12.5699 11.9442 12.5699 12.5838C12.5699 13.2234 12.3164 13.8369 11.865 14.29V14.295ZM3.42746 6.79506C3.71287 6.68757 3.95874 6.49563 4.13228 6.24483C4.30583 5.99404 4.39879 5.6963 4.39879 5.39131C4.39879 5.08633 4.30583 4.78859 4.13228 4.53779C3.95874 4.28699 3.71287 4.09505 3.42746 3.98756V1.75006C3.42746 1.55115 3.50648 1.36038 3.64713 1.21973C3.78778 1.07908 3.97854 1.00006 4.17746 1.00006H5.44746C5.55915 1.37754 5.78991 1.70879 6.1053 1.94438C6.42069 2.17996 6.8038 2.30725 7.19746 2.30725C7.59112 2.30725 7.97423 2.17996 8.28962 1.94438C8.60501 1.70879 8.83576 1.37754 8.94746 1.00006H10.2175C10.4164 1.00006 10.6071 1.07908 10.7478 1.21973C10.8884 1.36038 10.9675 1.55115 10.9675 1.75006V3.96006C10.682 4.06755 10.4362 4.25949 10.2626 4.51029C10.0891 4.76109 9.99612 5.05882 9.99612 5.36381C9.99612 5.6688 10.0891 5.96654 10.2626 6.21733C10.4362 6.46813 10.682 6.66007 10.9675 6.76756V9.26756C10.2435 9.09097 9.48174 9.15618 8.79837 9.45323C8.115 9.75027 7.54764 10.2628 7.18293 10.9126C6.81823 11.5624 6.67622 12.3137 6.77861 13.0517C6.881 13.7898 7.22215 14.4741 7.74996 15H4.18496C3.98605 15 3.79528 14.921 3.65463 14.7804C3.51398 14.6397 3.43496 14.4489 3.43496 14.25L3.42746 6.79506Z" fill="white"/>
<path d="M5.5249 5.85754H6.2299C6.36251 5.85754 6.48969 5.80486 6.58346 5.71109C6.67722 5.61732 6.7299 5.49015 6.7299 5.35754C6.7299 5.22493 6.67722 5.09775 6.58346 5.00399C6.48969 4.91022 6.36251 4.85754 6.2299 4.85754H5.5249C5.39229 4.85754 5.26512 4.91022 5.17135 5.00399C5.07758 5.09775 5.0249 5.22493 5.0249 5.35754C5.0249 5.49015 5.07758 5.61732 5.17135 5.71109C5.26512 5.80486 5.39229 5.85754 5.5249 5.85754Z" fill="white"/>
<path d="M8.17505 5.85754H8.87755C9.01016 5.85754 9.13733 5.80486 9.2311 5.71109C9.32487 5.61732 9.37755 5.49015 9.37755 5.35754C9.37755 5.22493 9.32487 5.09775 9.2311 5.00399C9.13733 4.91022 9.01016 4.85754 8.87755 4.85754H8.17505C8.04244 4.85754 7.91526 4.91022 7.8215 5.00399C7.72773 5.09775 7.67505 5.22493 7.67505 5.35754C7.67505 5.49015 7.72773 5.61732 7.8215 5.71109C7.91526 5.80486 8.04244 5.85754 8.17505 5.85754Z" fill="white"/>
<path d="M11.2175 12.3975L10.6575 12.9575V11C10.6575 10.8674 10.6048 10.7402 10.511 10.6465C10.4173 10.5527 10.2901 10.5 10.1575 10.5C10.0249 10.5 9.89771 10.5527 9.80394 10.6465C9.71017 10.7402 9.6575 10.8674 9.6575 11V12.9575L9.095 12.3975C9.00118 12.3037 8.87393 12.251 8.74125 12.251C8.60856 12.251 8.48132 12.3037 8.3875 12.3975C8.29367 12.4914 8.24097 12.6186 8.24097 12.7513C8.24097 12.884 8.29367 13.0112 8.3875 13.105L9.8025 14.5175C9.84893 14.564 9.90408 14.6009 9.96478 14.6261C10.0255 14.6512 10.0905 14.6642 10.1562 14.6642C10.222 14.6642 10.287 14.6512 10.3477 14.6261C10.4084 14.6009 10.4636 14.564 10.51 14.5175L11.925 13.105C12.0188 13.0112 12.0715 12.884 12.0715 12.7513C12.0715 12.6186 12.0188 12.4914 11.925 12.3975C11.8312 12.3037 11.7039 12.251 11.5712 12.251C11.4386 12.251 11.3113 12.3037 11.2175 12.3975Z" fill="white"/>
</g>
</svg>
