<svg width="17" height="17" viewBox="0 0 17 17" fill="none" xmlns="http://www.w3.org/2000/svg">
<g clip-path="url(#clip0_2361_3611)">
<path d="M4.68496 16.6725H10.6575C11.3329 16.6718 11.9931 16.4711 12.5545 16.0955C13.116 15.72 13.5535 15.1864 13.8119 14.5624C14.0703 13.9383 14.138 13.2516 14.0064 12.5891C13.8748 11.9266 13.5498 11.3179 13.0725 10.84C12.8985 10.6645 12.7067 10.5078 12.5 10.3725V7.03745C12.5 6.90485 12.4473 6.77767 12.3535 6.6839C12.2597 6.59013 12.1326 6.53745 12 6.53745C11.8869 6.5145 11.7853 6.45318 11.7123 6.36388C11.6393 6.27458 11.5995 6.16279 11.5995 6.04745C11.5995 5.93212 11.6393 5.82033 11.7123 5.73103C11.7853 5.64173 11.8869 5.58041 12 5.55746C12.1326 5.55746 12.2597 5.50478 12.3535 5.41101C12.4473 5.31724 12.5 5.19006 12.5 5.05746V2.42245C12.5 1.95833 12.3156 1.51321 11.9874 1.18502C11.6592 0.856829 11.2141 0.672455 10.75 0.672455H9.04996C8.91735 0.672455 8.79017 0.725133 8.6964 0.818901C8.60264 0.91267 8.54996 1.03985 8.54996 1.17245C8.53835 1.38308 8.4465 1.58126 8.29329 1.72626C8.14008 1.87125 7.93715 1.95206 7.72621 1.95206C7.51526 1.95206 7.31233 1.87125 7.15912 1.72626C7.00591 1.58126 6.91407 1.38308 6.90246 1.17245C6.90246 1.03985 6.84978 0.91267 6.75601 0.818901C6.66224 0.725133 6.53507 0.672455 6.40246 0.672455H4.70246C4.23833 0.672455 3.79321 0.856829 3.46502 1.18502C3.13683 1.51321 2.95246 1.95833 2.95246 2.42245V5.04745C2.95246 5.18006 3.00514 5.30724 3.0989 5.40101C3.19267 5.49478 3.31985 5.54745 3.45246 5.54745C3.56549 5.57041 3.66711 5.63173 3.7401 5.72103C3.81309 5.81033 3.85296 5.92212 3.85296 6.03745C3.85296 6.15279 3.81309 6.26458 3.7401 6.35388C3.66711 6.44318 3.56549 6.5045 3.45246 6.52745C3.31985 6.52745 3.19267 6.58013 3.0989 6.6739C3.00514 6.76767 2.95246 6.89485 2.95246 7.02745V14.9075C2.94846 15.3712 3.12867 15.8175 3.45351 16.1484C3.77835 16.4794 4.22126 16.6678 4.68496 16.6725ZM12.365 14.9675C12.0271 15.3049 11.5968 15.5346 11.1284 15.6275C10.66 15.7205 10.1746 15.6725 9.73349 15.4896C9.29239 15.3067 8.9154 14.9972 8.65017 14.6001C8.38494 14.203 8.24338 13.7362 8.24338 13.2587C8.24338 12.7812 8.38494 12.3144 8.65017 11.9173C8.9154 11.5202 9.29239 11.2107 9.73349 11.0278C10.1746 10.845 10.66 10.797 11.1284 10.8899C11.5968 10.9828 12.0271 11.2125 12.365 11.55C12.8164 12.0031 13.0699 12.6166 13.0699 13.2562C13.0699 13.8958 12.8164 14.5093 12.365 14.9625V14.9675ZM3.92746 7.46745C4.21287 7.35996 4.45874 7.16803 4.63228 6.91723C4.80583 6.66643 4.89879 6.36869 4.89879 6.0637C4.89879 5.75872 4.80583 5.46098 4.63228 5.21018C4.45874 4.95938 4.21287 4.76744 3.92746 4.65995V2.42245C3.92746 2.22354 4.00648 2.03278 4.14713 1.89212C4.28778 1.75147 4.47854 1.67245 4.67746 1.67245H5.94746C6.05915 2.04994 6.28991 2.38119 6.6053 2.61677C6.92069 2.85236 7.3038 2.97965 7.69746 2.97965C8.09112 2.97965 8.47423 2.85236 8.78962 2.61677C9.10501 2.38119 9.33576 2.04994 9.44746 1.67245H10.7175C10.9164 1.67245 11.1071 1.75147 11.2478 1.89212C11.3884 2.03278 11.4675 2.22354 11.4675 2.42245V4.63245C11.182 4.73994 10.9362 4.93188 10.7626 5.18268C10.5891 5.43348 10.4961 5.73122 10.4961 6.0362C10.4961 6.34119 10.5891 6.63893 10.7626 6.88973C10.9362 7.14053 11.182 7.33246 11.4675 7.43995V9.93995C10.7435 9.76337 9.98174 9.82858 9.29837 10.1256C8.615 10.4227 8.04764 10.9352 7.68293 11.585C7.31823 12.2348 7.17622 12.9861 7.27861 13.7241C7.381 14.4622 7.72215 15.1465 8.24996 15.6725H4.68496C4.48605 15.6725 4.29528 15.5934 4.15463 15.4528C4.01398 15.3121 3.93496 15.1214 3.93496 14.9225L3.92746 7.46745Z" fill="white"/>
<path d="M6.0249 6.52995H6.7299C6.86251 6.52995 6.98969 6.47727 7.08346 6.38351C7.17722 6.28974 7.2299 6.16256 7.2299 6.02995C7.2299 5.89734 7.17722 5.77017 7.08346 5.6764C6.98969 5.58263 6.86251 5.52995 6.7299 5.52995H6.0249C5.89229 5.52995 5.76512 5.58263 5.67135 5.6764C5.57758 5.77017 5.5249 5.89734 5.5249 6.02995C5.5249 6.16256 5.57758 6.28974 5.67135 6.38351C5.76512 6.47727 5.89229 6.52995 6.0249 6.52995Z" fill="white"/>
<path d="M8.67505 6.52995H9.37755C9.51016 6.52995 9.63733 6.47727 9.7311 6.38351C9.82487 6.28974 9.87755 6.16256 9.87755 6.02995C9.87755 5.89734 9.82487 5.77017 9.7311 5.6764C9.63733 5.58263 9.51016 5.52995 9.37755 5.52995H8.67505C8.54244 5.52995 8.41526 5.58263 8.3215 5.6764C8.22773 5.77017 8.17505 5.89734 8.17505 6.02995C8.17505 6.16256 8.22773 6.28974 8.3215 6.38351C8.41526 6.47727 8.54244 6.52995 8.67505 6.52995Z" fill="white"/>
<path d="M11.7175 13.07L11.1575 13.63V11.6725C11.1575 11.5398 11.1048 11.4127 11.011 11.3189C10.9173 11.2251 10.7901 11.1725 10.6575 11.1725C10.5249 11.1725 10.3977 11.2251 10.3039 11.3189C10.2102 11.4127 10.1575 11.5398 10.1575 11.6725V13.63L9.595 13.07C9.50118 12.9761 9.37393 12.9234 9.24125 12.9234C9.10856 12.9234 8.98132 12.9761 8.8875 13.07C8.79367 13.1638 8.74097 13.291 8.74097 13.4237C8.74097 13.5564 8.79367 13.6836 8.8875 13.7775L10.3025 15.19C10.3489 15.2364 10.4041 15.2733 10.4648 15.2985C10.5255 15.3236 10.5905 15.3366 10.6562 15.3366C10.722 15.3366 10.787 15.3236 10.8477 15.2985C10.9084 15.2733 10.9636 15.2364 11.01 15.19L12.425 13.7775C12.5188 13.6836 12.5715 13.5564 12.5715 13.4237C12.5715 13.291 12.5188 13.1638 12.425 13.07C12.3312 12.9761 12.2039 12.9234 12.0712 12.9234C11.9386 12.9234 11.8113 12.9761 11.7175 13.07Z" fill="white"/>
</g>
<defs>
<clipPath id="clip0_2361_3611">
<rect width="16" height="16" fill="white" transform="translate(0.5 0.672455)"/>
</clipPath>
</defs>
</svg>
