<svg width="20" height="20" viewBox="0 0 20 20" fill="none" xmlns="http://www.w3.org/2000/svg">
<g clip-path="url(#clip0_1736_7964)">
<mask id="mask0_1736_7964" style="mask-type:luminance" maskUnits="userSpaceOnUse" x="0" y="0" width="20" height="20">
<path d="M0 1.90735e-06H20V20H0V1.90735e-06Z" fill="white"/>
</mask>
<g mask="url(#mask0_1736_7964)">
<path d="M6.60695 13.2446C6.60695 15.3412 3.59402 18.1543 3.59402 18.1543C3.59402 18.1543 0.581055 15.3412 0.581055 13.2446C0.581055 11.5806 1.93 10.2317 3.59402 10.2317C5.25801 10.2317 6.60695 11.5806 6.60695 13.2446Z" stroke="#FB4156" stroke-width="1.33" stroke-miterlimit="10"/>
<path d="M4.17234 13.2449C4.17234 13.5643 3.9134 13.8232 3.59398 13.8232C3.27457 13.8232 3.01562 13.5643 3.01562 13.2449C3.01562 12.9255 3.27457 12.6665 3.59398 12.6665C3.9134 12.6665 4.17234 12.9255 4.17234 13.2449Z" stroke="#FB4156" stroke-width="1.33" stroke-miterlimit="10"/>
<path d="M19.4116 4.64988C19.4116 6.74645 16.3987 9.55957 16.3987 9.55957C16.3987 9.55957 13.3857 6.74645 13.3857 4.64988C13.3857 2.9859 14.7347 1.63695 16.3987 1.63695C18.0627 1.63695 19.4116 2.9859 19.4116 4.64988Z" stroke="#FB4156" stroke-width="1.33" stroke-miterlimit="10"/>
<path d="M16.977 4.65016C16.977 4.96957 16.7181 5.22852 16.3987 5.22852C16.0793 5.22852 15.8203 4.96957 15.8203 4.65016C15.8203 4.33074 16.0793 4.0718 16.3987 4.0718C16.7181 4.0718 16.977 4.33074 16.977 4.65016Z" stroke="#FB4156" stroke-width="1.33" stroke-miterlimit="10"/>
<path d="M5.9375 18.1543H14.2498C15.4364 18.1543 16.3983 17.1923 16.3983 16.0057V16.0057C16.3983 14.8191 15.4364 13.8571 14.2498 13.8571H10.9726C9.78598 13.8571 8.82402 12.8952 8.82402 11.7086C8.82402 10.522 9.78598 9.56 10.9726 9.56H14.0545" stroke="#FB4156" stroke-width="1.33" stroke-miterlimit="10"/>
</g>
</g>
<defs>
<clipPath id="clip0_1736_7964">
<rect width="20" height="20" fill="white"/>
</clipPath>
</defs>
</svg>
